<svg viewBox="0 0 69.12 84" xmlns="http://www.w3.org/2000/svg"><g stroke="none">
<polyline fill="#000" points="15.91 18.85 4.29 53.70 12.70 53.70 20.59 29.07 24.55 41.38 19.43 41.38 17.39 48.41 26.81 48.41 28.51 53.70 37.16 53.70 25.54 18.85 15.91 18.85"/>
<path fill="#000" d="M50.38,18.85 L38.30,18.85 L38.30,53.70 L46.65,53.70 L46.65,25.88 L50.02,25.88 C53.92,25.88 56.15,27.75 56.15,31.11 C56.15,34.42 53.92,36.34 50.02,36.34 L49.48,36.34 L49.48,43.37 L50.38,43.37 C59.39,43.37 64.68,38.83 64.68,31.11 C64.68,23.24 59.39,18.85 50.38,18.85"/>
<rect fill="#FF322E" x="0" y="63.5" width="69.12" height="9"/>
</g></svg>
