<?xml version="1.0" encoding="UTF-8" standalone="no"?>
<svg
   version="1.1"
   viewBox="0 0 634.81836 278.46701"
   id="svg3"
   width="634.81836"
   height="278.46701"
   xml:space="preserve"
   xmlns="http://www.w3.org/2000/svg"
   xmlns:svg="http://www.w3.org/2000/svg"><defs
     id="defs3" /><path
     id="rect5"
     style="fill:#ff4500;fill-rule:evenodd;stroke:none;stroke-width:1.51181;fill-opacity:1"
     d="M 132.45054,0 C 59.024992,0.32967 0,62.2039 0,139.04781 0,216.09719 59.333691,278.12623 133.03254,278.12623 h 89.4401 c 31.40713,0 60.18012,-11.29179 82.88879,-30.1835 18.44963,18.87803 43.97747,30.52429 72.26351,30.52429 29.17254,0 55.38991,-12.41067 73.9559,-32.34304 19.33778,19.93306 46.64489,32.34304 77.03052,32.34304 58.24863,0 105.18745,-45.54729 106.20702,-102.47383 V 0 h -86.51481 c 9.4e-4,198.95195 0.17625,-69.53274 0.17625,162.67998 0,14.63405 -11.78186,26.41583 -26.41583,26.41583 -14.63405,0 -26.41583,-11.78178 -26.41583,-26.41583 0,-232.21269 0.17526,36.27171 0.17605,-162.67998 H 408.1569 c 9.2e-4,198.95162 0.17624,-69.53269 0.17604,162.67998 0,14.63405 -11.78183,26.41583 -26.41581,26.41583 -14.63404,0 -26.41582,-11.78178 -26.41582,-26.41583 0,-232.21267 0.17526,36.27166 0.17604,-162.67998 h -87.49104 v 139.04781 c 0,28.63159 -20.7988,51.68297 -46.63262,51.68297 h -87.66347 c -25.83379,0 -46.632605,-23.05138 -46.632605,-51.68297 0,-28.63166 20.798815,-51.683 46.632605,-51.683 h 85.2168 V 0 Z" /></svg>
